{"title":"The.Colony.2013.DVDRiP.Repack.x264.AC3 - BiTo","uid":8721396,"size":1668459573,"categoryP":"video","categoryS":"movies","magnet":"?xt=urn:btih:5b5791109c68dbb3ad566e067166db51c2de8ed6&amp;dn=The.Colony.2013.DVDRiP.Repack.x264.AC3+-+BiTo&amp;tr=udp%3A%2F%2Ftracker.openbittorrent.com%3A80&amp;tr=udp%3A%2F%2Fopen.demonii.com%3A1337&amp;tr=udp%3A%2F%2Ftracker.coppersurfer.tk%3A6969&amp;tr=udp%3A%2F%2Fexodus.desync.com%3A6969","seeders":1,"leechers":0,"uploader":"xxxlavalxxx","files":-1,"time":1374427464,"description":"\n\n\n &lt;a href=&quot;\nhttp://www.imdb.com/title/tt1160996/&quot; rel=&quot;nofollow&quot; target=&quot;_NEW&quot;&gt;\nhttp://www.imdb.com/title/tt1160996/&lt;/a&gt;\n\n\n\nForced underground by the next ice age, a struggling outpost of survivors must fight to preserve humanity against a threat even more savage than nature. \n\n\n\nDirector:\n Jeff Renfroe \n\nWriters:\n Jeff Renfroe Svet Rouskov \n\nStars:\n Laurence Fishburne, Kevin Zegers, Bill Paxton \n\nGenres:\n  Action |  Sci-Fi |  Thriller \n\nCountry:\n Canada \n\nLanguage:\n English \n\n\n\nSource: DVDR\n Sample: Yes\n Codec: X264\n Container: MKV\n Audio: AC3 6CH@ English\n\n Video\n ID                                       : 0\n Format                                   : AVC\n Format/Info                              : Advanced Video Codec\n Format profile                           : &lt;a class=&quot;__cf_email__&quot; href=&quot;/cdn-cgi/l/email-protection&quot; data-cfemail=&quot;9bd3f2fcf3dbd7a8b5ab&quot;&gt;[email&amp;#160;protected]&lt;/a&gt;&lt;script cf-hash='f9e31' type=&quot;text/javascript&quot;&gt;\n/* &lt;![CDATA[ */!function(){try{var t=&quot;currentScript&quot;in document?document.currentScript:function(){for(var t=document.getElementsByTagName(&quot;script&quot;),e=t.length;e--;)if(t[e].getAttribute(&quot;cf-hash&quot;))return t[e]}();if(t&amp;&amp;t.previousSibling){var e,r,n,i,c=t.previousSibling,a=c.getAttribute(&quot;data-cfemail&quot;);if(a){for(e=&quot;&quot;,r=parseInt(a.substr(0,2),16),n=2;a.length-n;n+=2)i=parseInt(a.substr(n,2),16)^r,e+=String.fromCharCode(i);e=document.createTextNode(e),c.parentNode.replaceChild(e,c)}}}catch(u){}}();/* ]]&gt; */&lt;/script&gt;\n Format settings, CABAC                   : Yes\n Format settings, ReFrames                : 5 frames\n Codec ID                                 : H264\n Duration                                 : 1h 34mn\n Bit rate                                 : 1 923 Kbps\n Width                                    : 720 pixels\n Height                                   : 404 pixels\n Display aspect ratio                     : 16:9\n Frame rate                               : 29.970 fps\n Color space                              : YUV\n Chroma subsampling                       : 4:2:0\n Bit depth                                : 8 bits\n Scan type                                : Progressive\n Bits/(Pixel*Frame)                       : 0.221\n Stream size                              : 1.27 GiB (83%)\n\n Audio\n ID                                       : 1\n Format                                   : AC-3\n Format/Info                              : Audio Coding 3\n Mode extension                           : CM (complete main)\n Format settings, Endianness              : Big\n Codec ID                                 : 2000\n Duration                                 : 1h 34mn\n Bit rate mode                            : Constant\n Bit rate                                 : 384 Kbps\n Channel(s)                               : 6 channels\n Channel positions                        : Front: L C R, Side: L R, LFE\n Sampling rate                            : 48.0 KHz\n Bit depth                                : 16 bits\n Compression mode                         : Lossy\n Stream size                              : 259 MiB (17%)\n Alignment                                : Aligned on interleaves\n Interleave, duration                     : 33 ms (1.00 video frame)\n Interleave, preload duration             : 512 ms\n\n\n\nscreens\n\n\n    &lt;a href=&quot;\thttp://addpix.net/viewer.php?file=59952395710096544663.jpg&quot; rel=&quot;nofollow&quot; target=&quot;_NEW&quot;&gt;\thttp://addpix.net/viewer.php?file=59952395710096544663.jpg&lt;/a&gt;\n    &lt;a href=&quot;\thttp://addpix.net/viewer.php?file=30793869613987618660.jpg&quot; rel=&quot;nofollow&quot; target=&quot;_NEW&quot;&gt;\thttp://addpix.net/viewer.php?file=30793869613987618660.jpg&lt;/a&gt;\n    &lt;a href=&quot;\thttp://addpix.net/viewer.php?file=12869264557517697061.jpg&quot; rel=&quot;nofollow&quot; target=&quot;_NEW&quot;&gt;\thttp://addpix.net/viewer.php?file=12869264557517697061.jpg&lt;/a&gt;\n    &lt;a href=&quot;\thttp://addpix.net/viewer.php?file=10811181304958046730.jpg&quot; rel=&quot;nofollow&quot; target=&quot;_NEW&quot;&gt;\thttp://addpix.net/viewer.php?file=10811181304958046730.jpg&lt;/a&gt;\n    &lt;a href=&quot;\thttp://addpix.net/viewer.php?file=10700882557410579166.jpg&quot; rel=&quot;nofollow&quot; target=&quot;_NEW&quot;&gt;\thttp://addpix.net/viewer.php?file=10700882557410579166.jpg&lt;/a&gt;","torrent":{"xt":"urn:btih:5b5791109c68dbb3ad566e067166db51c2de8ed6","amp;dn":"The.Colony.2013.DVDRiP.Repack.x264.AC3+-+BiTo","amp;tr":["udp%3A%2F%2Ftracker.openbittorrent.com%3A80","udp%3A%2F%2Fopen.demonii.com%3A1337","udp%3A%2F%2Ftracker.coppersurfer.tk%3A6969","udp%3A%2F%2Fexodus.desync.com%3A6969"],"infoHash":"5b5791109c68dbb3ad566e067166db51c2de8ed6","infoHashBuffer":{"type":"Buffer","data":[91,87,145,16,156,104,219,179,173,86,110,6,113,102,219,81,194,222,142,214]},"announce":[],"urlList":[]}}